<svg id="Layer_1" data-name="Layer 1" xmlns="http://www.w3.org/2000/svg" xmlns:xlink="http://www.w3.org/1999/xlink" viewBox="0 0 379.42 112.23"><defs><style>.cls-1{fill:none;}.cls-2{clip-path:url(#clip-path);}.cls-3{fill:#f15a58;}.cls-4{fill:#f37776;}.cls-5{fill:#ed193f;}.cls-6{fill:#231f20;}</style><clipPath id="clip-path"><rect class="cls-1" width="379.42" height="112.23"/></clipPath></defs><title>logo</title><g class="cls-2"><g class="cls-2"><path class="cls-3" d="M60.72,57H32.94a4.49,4.49,0,0,1,0-9H60.72a4.49,4.49,0,0,1,0,9"/><path class="cls-4" d="M60.72,72H17.27a4.49,4.49,0,1,1,0-9H60.72a4.49,4.49,0,1,1,0,9"/><path class="cls-5" d="M60.72,42H17.27a4.49,4.49,0,0,1,0-9H60.72a4.49,4.49,0,0,1,0,9"/><path class="cls-6" d="M80.19,38.9V33h25.64v5.1L95,49.15c5.93.77,11.41,3.71,11.41,11s-5.54,12.3-13.57,12.3A18.36,18.36,0,0,1,78,65.6l4.76-4.43c2.77,3.27,5.87,5.1,10.19,5.1,3.82,0,6.71-2.33,6.71-5.93,0-3.88-3.44-6-8.92-6H87.61L86.5,50,97,38.9Z"/><path class="cls-6" d="M152,71.75h-7.21l-3.93-9.36H122.5l-4,9.36h-7l17.06-39h6.31ZM131.65,40.84,125,56.35h13.35Z"/><path class="cls-6" d="M164.55,71.75h-6.71V42.5h6.71V47c1.88-2.77,4.6-5.15,9.14-5.15,6.59,0,10.41,4.43,10.41,11.25V71.75h-6.7V55.13c0-4.54-2.27-7.15-6.26-7.15s-6.59,2.72-6.59,7.26Z"/><path class="cls-6" d="M210.08,71.75v-3.6a11.82,11.82,0,0,1-9.47,4.21c-5.54,0-10.42-3.16-10.42-9v-.11c0-6.32,5-9.42,11.86-9.42A24.65,24.65,0,0,1,210.14,55V54.3c0-4-2.55-6.26-7.2-6.26a20.35,20.35,0,0,0-8.37,1.83l-1.83-5.37a25.11,25.11,0,0,1,11.14-2.44c8.64,0,12.85,4.54,12.85,12.35V71.75Zm.17-12.41a19.29,19.29,0,0,0-6.71-1.16c-4.21,0-6.7,1.72-6.7,4.71V63c0,2.77,2.49,4.32,5.65,4.32,4.43,0,7.76-2.49,7.76-6.15Z"/><rect class="cls-6" x="225.09" y="31.31" width="6.7" height="40.44"/><path class="cls-6" d="M256.17,72.58c-2.33,6-4.94,8.2-9.64,8.2A13.75,13.75,0,0,1,239.6,79l2.27-5a8.21,8.21,0,0,0,3.94,1.11c1.88,0,3-.83,4.15-3.38L237.77,42.5h7.15l8.31,21.72,7.59-21.72h7Z"/><path class="cls-6" d="M281.64,62.61c0,2.6,1.33,3.66,3.61,3.66a9.07,9.07,0,0,0,4.15-1v5.48a11.64,11.64,0,0,1-6,1.5c-4.93,0-8.42-2.16-8.42-8.59V48.26h-3.71V42.5h3.71v-8h6.7v8h7.87v5.76h-7.87Z"/><path class="cls-6" d="M296.38,31.64h7.2V38h-7.2Zm.27,10.86h6.71V71.75h-6.71Z"/><path class="cls-6" d="M325.63,72.42a15.27,15.27,0,0,1,.05-30.53,14.62,14.62,0,0,1,11.69,5l-4.16,4.49c-2-2.16-4.2-3.66-7.58-3.66-4.88,0-8.42,4.22-8.42,9.37s3.6,9.47,8.75,9.47c3.16,0,5.48-1.5,7.59-3.66l4,4a14.81,14.81,0,0,1-12,5.49"/><path class="cls-6" d="M353.76,72.3a20.52,20.52,0,0,1-12.4-4.37l3-4.54a16.43,16.43,0,0,0,9.58,3.6c2.88,0,4.54-1.22,4.54-3.16v-.11c0-2.27-3.1-3-6.53-4.1-4.32-1.22-9.14-3-9.14-8.59v-.11c0-5.54,4.59-8.92,10.41-8.92A20.27,20.27,0,0,1,364,45.33l-2.66,4.76A17,17,0,0,0,353,47.32c-2.6,0-4.09,1.22-4.09,2.94v.11c0,2.1,3.15,3,6.59,4.1,4.26,1.33,9.08,3.27,9.08,8.53v.11c0,6.15-4.76,9.19-10.86,9.19"/></g></g></svg>